<svg width="162" height="48" viewBox="0 0 162 48" fill="none" xmlns="http://www.w3.org/2000/svg">
<path d="M12.3598 0.0404434C10.3114 0.0958067 8.90425 0.261896 7.54785 0.607917C6.59745 0.852438 5.80391 1.19846 4.89042 1.76132C2.97116 2.95624 1.34717 5.03698 0.738176 7.08542C0.299884 8.55715 0.124567 9.90433 0.0415224 12.368C-0.0138408 14.0658 -0.0138408 33.383 0.0415224 35.3207C0.119954 37.9274 0.295271 39.4083 0.687427 40.7878C1.44867 43.4314 3.57554 45.8166 6.20068 46.9746C7.30333 47.4591 8.78891 47.7682 10.7912 47.9343C11.8339 48.0219 36.2306 48.0219 37.2733 47.9343C40.1845 47.6943 41.7577 47.2238 43.4647 46.0704C45.2963 44.8431 46.7681 42.8501 47.354 40.8201C47.8292 39.1684 47.9584 37.9412 48.0276 34.4072C48.0922 31.1546 48.0553 12.5018 47.9815 11.3392C47.7831 8.18345 47.3033 6.43028 46.1775 4.72325C45.6331 3.89742 44.7612 2.94701 44.0092 2.35647C43.2018 1.72441 41.9792 1.05544 41.1257 0.77862C40.2075 0.483349 38.8465 0.234215 37.5501 0.128102C37.2087 0.10042 36.2537 0.0588978 35.4279 0.0358298C33.6655 -0.0149198 14.2145 -0.0103062 12.3598 0.0404434ZM20.1338 12.1927C20.3091 12.2296 20.5997 12.3311 20.7797 12.4187C20.9642 12.5064 23.7231 14.4026 27.1464 16.7924C32.6274 20.6217 33.2318 21.06 33.6516 21.4706C34.2468 22.0612 34.5051 22.4948 34.722 23.293C34.8373 23.7082 34.8373 24.8478 34.7174 25.2722C34.519 26.0012 33.9838 26.8547 33.4671 27.2792C32.9919 27.6667 21.1349 35.9389 20.8396 36.0865C20.3783 36.3218 19.9308 36.4095 19.331 36.3772C18.519 36.3403 17.8731 36.0496 17.301 35.4683C16.9504 35.1177 16.7428 34.7855 16.5674 34.3057L16.4429 33.9689V24.2572V14.5456L16.5905 14.1673C16.7612 13.7152 16.9827 13.3738 17.3056 13.0508C18.0576 12.2988 19.1188 11.9804 20.1338 12.1927Z" fill="#D0135C"/>
<path d="M109.893 6.34228L109.75 6.47146L109.755 17.6364C109.755 25.0873 109.773 28.9766 109.805 29.3319C109.865 29.987 110.036 30.9236 110.193 31.4772C110.59 32.8567 111.18 33.8947 112.084 34.8036C113.796 36.5199 116.463 37.2996 120.071 37.1289C121.473 37.0596 121.57 37.0366 121.653 36.7275C121.722 36.4876 121.722 31.6802 121.658 31.4449C121.579 31.1635 121.542 31.1542 120.158 31.1542C119.042 31.1542 118.866 31.1404 118.488 31.0527C117.962 30.9282 117.662 30.8036 117.266 30.5452C116.864 30.2823 116.62 30.0008 116.398 29.5441C116.066 28.8567 116.075 29.0827 116.075 23.1266V17.7979H118.442C121.072 17.7979 120.966 17.8117 121.058 17.4841C121.127 17.2304 121.118 12.7967 121.044 12.5845C121.007 12.4738 120.938 12.3953 120.827 12.3446C120.68 12.2708 120.463 12.2615 118.373 12.2615H116.075V9.44262C116.075 6.37457 116.075 6.38841 115.817 6.26846C115.734 6.23155 114.89 6.21771 112.869 6.21771H110.031L109.893 6.34228Z" fill="#D0135C"/>
<path d="M66.9391 11.6898C63.6957 11.9759 61.3981 12.9125 59.7649 14.6195C58.3347 16.1143 57.5411 18.0059 57.2228 20.6818C57.1259 21.4799 57.0798 26.1212 57.1536 27.4176C57.2413 28.9217 57.4258 29.9597 57.8087 31.067C58.8745 34.1581 61.3012 36.0312 65.1859 36.7556C66.6161 37.0231 67.3589 37.0877 69.2505 37.1154C71.2482 37.1477 72.4385 37.0739 74.1132 36.8248C75.8802 36.5664 77.9886 35.9989 78.2332 35.7221L78.3347 35.6022V32.9032V30.2042L78.2193 30.0935C78.0717 29.9413 77.8871 29.9459 77.3012 30.1166C75.2159 30.721 72.0186 31.1777 69.8226 31.1777C67.8572 31.1777 66.3162 30.9193 65.2782 30.4118C64.8168 30.1858 64.7015 30.1027 64.3785 29.7752C63.7418 29.1339 63.5388 28.5987 63.4927 27.4268L63.465 26.7486H71.0129C78.1547 26.7486 78.5653 26.744 78.6069 26.6656C78.6714 26.541 78.8744 25.4891 78.9529 24.8571C79.0913 23.7498 79.1328 22.8732 79.1051 21.6968C79.0682 20.0635 78.8929 18.9286 78.4915 17.706C77.3658 14.2735 74.8606 12.3634 70.7222 11.7729C70.3393 11.7221 69.7672 11.6945 68.6692 11.6852C67.8341 11.6806 67.0544 11.6806 66.9391 11.6898ZM70.044 17.2861C71.7049 17.646 72.6415 18.4488 72.9829 19.8052C73.0475 20.0543 73.089 20.4049 73.1074 20.8755L73.1351 21.5814H68.3093H63.4789V21.1293C63.4789 19.7867 63.7511 18.9886 64.4477 18.3011C64.7384 18.0105 64.8906 17.9044 65.2828 17.7106C65.7764 17.4661 66.39 17.2861 66.9944 17.2031C67.179 17.18 67.8387 17.1662 68.4615 17.1754C69.4027 17.1893 69.6703 17.2077 70.044 17.2861Z" fill="#D0135C"/>
<path d="M92.8685 11.694C91.0554 11.8693 89.8743 12.1277 88.7024 12.5937C87.5952 13.0366 86.7186 13.5856 85.9343 14.3376C84.4349 15.7678 83.6136 17.6179 83.3645 20.1462C83.3368 20.4507 83.3184 23.4449 83.3184 28.4599V36.2938L83.4291 36.4229L83.5398 36.5521L86.451 36.566L89.3576 36.5752L89.5098 36.4414L89.6621 36.3076L89.6851 28.3076L89.7082 20.3122L89.8143 19.9432C90.1188 18.8497 90.7693 18.2084 91.8997 17.8947C93.0715 17.5718 95.1384 17.5256 96.4856 17.8024C97.9158 18.0931 98.6309 18.7436 98.9262 20.0216C99.0231 20.4507 99.0231 20.4645 99.0369 28.3168C99.0461 32.6444 99.06 36.2292 99.0738 36.2892C99.0877 36.3445 99.1661 36.4322 99.2491 36.4829C99.3922 36.5706 99.4936 36.5752 102.225 36.5752C104.804 36.5752 105.067 36.566 105.191 36.4968C105.261 36.4552 105.344 36.363 105.371 36.2984C105.408 36.2153 105.418 33.8486 105.404 28.1738C105.385 19.5556 105.394 19.8832 105.145 18.6052C104.753 16.5706 103.835 14.9374 102.474 13.844C100.952 12.6168 98.9492 11.9339 96.2226 11.7125C95.6874 11.6664 93.2653 11.6525 92.8685 11.694Z" fill="#D0135C"/>
<path d="M134.623 11.6944C133.414 11.8097 132.681 11.9297 131.933 12.1234C128.109 13.1107 125.834 15.5467 125.078 19.4591C124.847 20.654 124.833 20.8847 124.81 24.0727C124.787 27.1361 124.815 27.9435 124.962 28.94C125.451 32.2526 127.001 34.4856 129.71 35.7728C130.997 36.3864 132.639 36.797 134.669 37.023C135.633 37.1292 138.983 37.143 139.975 37.0461C141.507 36.8939 142.858 36.6724 144.012 36.3864C144.865 36.1695 145.806 35.8512 145.908 35.7405C145.991 35.6482 145.996 35.519 146.009 32.9538L146.019 30.2641L145.899 30.1211C145.746 29.9412 145.58 29.9365 145.045 30.0934C142.845 30.7578 139.269 31.2284 136.953 31.1638C133.262 31.053 131.537 30.1349 131.209 28.1096C131.181 27.9573 131.163 27.5882 131.163 27.293V26.7485L138.715 26.7393L146.268 26.7255L146.374 26.2872C146.701 24.9216 146.872 22.5825 146.761 21.0277C146.549 18.0657 145.751 15.9896 144.224 14.4118C142.711 12.857 140.625 11.985 137.737 11.7082C137.313 11.6667 134.997 11.6575 134.623 11.6944ZM137.299 17.2215C137.986 17.3183 138.402 17.4429 138.96 17.7151C139.375 17.9135 139.5 18.0058 139.818 18.3241C140.51 19.0208 140.759 19.7174 140.759 20.9631V21.5813H135.956H131.149L131.177 20.8062C131.195 20.2157 131.223 19.9573 131.301 19.6897C131.698 18.2964 132.745 17.5029 134.554 17.2261C135.131 17.1384 136.681 17.1338 137.299 17.2215Z" fill="#D0135C"/>
<path d="M160.066 11.6897C156.186 11.8512 153.534 13.0507 152.011 15.3252C151.356 16.2987 150.955 17.4475 150.715 19.0207C150.673 19.2976 150.655 21.5259 150.645 27.8419L150.627 36.2941L150.765 36.4463L150.899 36.5986L153.709 36.6124C156.657 36.6262 156.805 36.617 156.915 36.4233C156.961 36.3448 156.98 34.6332 156.998 28.2018C157.026 20.6678 157.031 20.0588 157.104 19.7358C157.464 18.2134 158.465 17.6597 160.869 17.6597C161.534 17.6597 161.566 17.6551 161.69 17.549L161.82 17.4383L161.833 14.7578C161.847 11.8927 161.843 11.8789 161.621 11.7589C161.524 11.7082 160.611 11.6667 160.066 11.6897Z" fill="#D0135C"/>
</svg>
