<svg width="376" height="48" viewBox="0 0 376 48" fill="none" xmlns="http://www.w3.org/2000/svg">
<path d="M40.1122 0.38886C26.7322 2.22861 12.7668 9.78275 2.5645 20.7376L0 23.4694L0.864127 24.668C7.47051 33.8668 19.7634 42.1178 30.8019 44.7102C50.3145 49.3374 68.1266 46.6893 83.0398 36.933C85.9109 35.0654 89.9528 31.7762 91.9598 29.6855L93.2142 28.3754L90.4267 30.243C83.1513 35.1212 74.1198 38.2711 63.8617 39.4418C55.8895 40.3896 44.7673 39.4418 38.3561 37.3233C30.8019 34.8145 26.0632 29.7413 24.8924 23.0234C24.3907 20.0965 24.6415 18.3961 25.9238 15.9153C29.8263 8.5005 40.4188 3.81749 55.4435 2.89761C63.4436 2.39586 71.2486 4.68162 75.2905 8.69562C76.2661 9.67125 77.2696 10.842 77.5484 11.3159L78.0223 12.18L76.5728 13.7689C73.8968 16.6958 69.158 19.316 65.0604 20.1523C54.9138 22.2429 45.8266 19.5669 40.6418 12.9884C39.3317 11.3438 39.1366 11.5668 39.1366 14.8839C39.1366 16.64 39.2759 17.3926 39.7777 18.424C42.2864 23.5252 50.4538 27.6507 60.0429 28.7099C70.3566 29.8249 80.977 25.0304 87.4162 16.3055C88.3639 15.0233 88.559 14.5773 88.3082 14.2985C87.7785 13.6574 81.7575 9.92213 78.301 8.11025C70.4124 3.92899 62.0499 1.22511 54.0497 0.249485C50.872 -0.140766 43.3736 -0.0571409 40.1122 0.38886Z" fill="#376B91"/>
<path d="M51.2628 3.78901C49.423 3.98414 44.1546 5.01551 42.0919 5.57301C32.2241 8.30477 25.3111 14.3815 25.2832 20.3747C25.2832 21.9914 25.785 25.3364 26.0358 25.3364C26.0916 25.3364 26.1195 24.305 26.1195 23.0228C26.1195 19.2875 27.4853 16.3328 30.7467 13.2387C35.0952 9.08527 42.1197 6.29777 52.322 4.70889C54.4126 4.37439 56.2524 3.98414 56.4196 3.84476C56.6705 3.59389 53.3534 3.56601 51.2628 3.78901Z" fill="#0F4369"/>
<path d="M198.721 10.0335C190.888 10.9255 185.898 16.8071 185.898 25.1975C185.898 29.8248 187.125 32.9468 189.912 35.5949C192.616 38.1594 195.404 39.1072 200.254 39.0514C203.348 39.0514 205.216 38.7448 206.972 38.02L207.92 37.6298V34.8701V32.0826L206.191 32.8074C203.822 33.783 200.003 33.9781 197.857 33.2813C195.822 32.5844 193.703 30.4659 193.007 28.4031C192.31 26.2846 192.282 22.856 192.979 20.8769C193.676 18.842 196.073 16.4169 197.996 15.7757C200.505 14.9116 204.268 15.2182 207.446 16.5562C207.892 16.7514 207.92 16.5005 207.92 13.8245V10.8697L206.888 10.5631C205.913 10.3122 204.463 10.1171 201.648 9.8941C201.035 9.86622 199.724 9.92197 198.721 10.0335Z" fill="#376B91"/>
<path d="M120.951 24.501V38.7173H129.453H137.955V36.2085V33.6998H132.659H127.362V30.3548V27.0098H131.962H136.561V24.501V21.9923H131.962H127.362V18.6472V15.3022H132.241H137.119V12.7935V10.2847H129.035H120.951V24.501Z" fill="#376B91"/>
<path d="M164.017 13.323L161.508 14.0756L161.424 16.222L161.341 18.3684H159.696H158.023V20.5984V22.8284H159.668H161.313L161.424 28.8773C161.508 34.4523 161.564 35.0377 162.121 36.0691C162.846 37.4628 163.459 38.0203 164.853 38.6057C166.051 39.1074 169.173 39.2747 170.93 38.9123L171.961 38.6893V36.4872V34.2851L170.623 34.4523C169.452 34.5917 169.173 34.5081 168.449 33.8948L167.64 33.1979L167.557 28.0132L167.473 22.8284H169.703H171.961V20.5984V18.3684H169.731H167.501V15.4415C167.501 12.0408 167.78 12.208 164.017 13.323Z" fill="#376B91"/>
<path d="M328.481 13.3224L325.973 14.075L325.889 16.2214L325.805 18.3677H324.161H322.488V20.5978V22.8278H324.161H325.833V27.9846C325.833 35.3994 326.335 37.0998 328.983 38.4099C330.433 39.1347 333.248 39.3298 335.394 38.9117L336.426 38.6887V36.4865V34.2844L335.088 34.4516C333.917 34.591 333.638 34.5074 332.914 33.8941L332.105 33.1973V28.0683V22.9671L334.279 22.8835L336.426 22.7999V20.5978V18.3677H334.196H331.966V15.4409C331.966 12.0401 332.245 12.2074 328.481 13.3224Z" fill="#376B91"/>
<path d="M85.884 18.9259C82.6784 22.3546 79.64 24.6682 75.9605 26.4522C71.3611 28.7101 66.26 29.7136 61.0195 29.4348C58.7337 29.2954 58.2877 29.3512 58.9289 29.5742C59.4027 29.7414 61.9394 29.8808 64.6432 29.9087C69.159 29.9087 69.7444 29.8529 72.281 29.1561C77.5215 27.7066 81.8979 25.0863 86.0792 20.8772C88.1698 18.7587 89.0897 17.2534 88.6994 16.5565C88.5322 16.2499 87.8074 16.8632 85.884 18.9259Z" fill="#0F4369"/>
<path d="M145.397 18.647C142.331 19.6227 140.742 21.6018 140.742 24.4729C140.742 27.567 142.331 29.2396 146.596 30.6054C149.3 31.4696 150.22 32.1386 150.22 33.1421C150.22 34.4522 149.188 34.9539 146.457 34.9539C144.617 34.9261 143.92 34.7867 142.582 34.1734C141.69 33.7553 140.909 33.4208 140.826 33.4208C140.77 33.4208 140.77 34.5079 140.798 35.8459L140.882 38.2989L142.415 38.6613C143.251 38.8564 145.146 39.0237 146.596 39.0516C152.561 39.1352 156.073 36.7658 156.073 32.6403C156.073 29.3511 154.457 27.79 149.216 26.0618C147.655 25.56 146.484 24.5287 146.652 23.776C146.68 23.5252 147.098 23.0513 147.516 22.7168C148.575 21.9363 151.418 21.9642 153.509 22.8004L154.958 23.3858V21.0443V18.7028L153.202 18.3962C150.554 17.9502 147.265 18.0338 145.397 18.647Z" fill="#376B91"/>
<path d="M217.702 18.7025C215.416 19.483 213.019 21.6294 212.071 23.72C211.486 25.0301 211.402 25.6155 211.402 28.6818C211.402 31.9153 211.458 32.2776 212.183 33.755C213.604 36.6261 216.336 38.438 220.127 38.9955C223.974 39.5251 227.932 38.4101 230.162 36.1244C233.507 32.7236 233.981 26.3402 231.222 22.1311C229.41 19.3994 227.068 18.3122 222.552 18.1729C219.96 18.0892 219.207 18.1729 217.702 18.7025ZM224.281 22.8559C224.699 23.0231 225.451 23.5249 225.897 23.9987C226.734 24.835 226.734 24.8907 226.734 27.8176C226.734 30.4379 226.65 30.9396 226.037 32.1383C225.173 33.8108 223.946 34.5355 221.995 34.5355C218.956 34.5355 217.451 32.6958 217.423 28.9605C217.395 26.619 217.786 25.281 218.845 24.0824C220.044 22.6886 222.441 22.159 224.281 22.8559Z" fill="#376B91"/>
<path d="M247.726 18.3685C246.5 18.7309 245.078 19.7344 244.158 20.8215L243.322 21.8529V20.0968V18.3685H240.256H237.189V28.5429V38.7173H240.228H243.294L243.378 32.083C243.461 26.0341 243.517 25.393 244.019 24.501C245.106 22.6613 247.559 22.048 248.981 23.3024C250.151 24.3616 250.291 25.2536 250.291 32.1666V38.7173H253.357H256.423V32.3618C256.423 26.731 256.507 25.8948 256.981 24.8634C258.402 21.7135 262.361 21.9365 263.113 25.2258C263.253 25.8111 263.392 29.1004 263.392 32.5011V38.7173H266.486H269.58L269.469 31.1074C269.329 22.5498 269.106 21.4069 267.434 19.6786C266.207 18.4242 264.758 18.0061 262.138 18.1455C259.629 18.257 257.761 19.149 256.786 20.6264L256.061 21.7135L255.587 20.9609C254.834 19.7344 253.552 18.6751 252.493 18.3685C251.378 18.034 248.785 18.034 247.726 18.3685Z" fill="#376B91"/>
<path d="M284.128 18.6188C283.487 18.8976 282.456 19.6781 281.814 20.3471L280.672 21.5457V19.9568V18.368H277.605H274.539V33.1417V47.9155H277.605H280.672V42.006V36.0686L281.508 37.1C282.623 38.438 284.24 39.0791 286.665 39.0791C292.1 39.0791 295.445 34.8421 295.445 27.957C295.445 24.2217 294.721 22.0475 292.853 20.2077C291.933 19.2878 290.985 18.6467 290.261 18.4237C288.504 17.922 285.466 18.0056 284.128 18.6188ZM287.334 23.3297C288.755 24.389 289.173 25.5319 289.173 28.2636C289.173 30.41 289.062 30.9396 288.477 32.0267C286.665 35.2324 282.818 35.3996 281.201 32.3055C280.421 30.8839 280.449 26.5632 281.229 25.058C281.787 23.9709 282.874 23.0231 283.877 22.7444C284.853 22.4656 286.581 22.7722 287.334 23.3297Z" fill="#376B91"/>
<path d="M345.708 18.4794C343.144 19.3156 341.081 21.1832 339.855 23.8035C339.13 25.3366 339.074 25.7269 339.074 28.821C339.074 31.8315 339.158 32.3054 339.799 33.6991C341.276 36.849 343.451 38.41 347.13 38.9954C349.499 39.3578 353.513 38.9675 355.297 38.1592L356.496 37.6295V35.5389C356.496 33.6434 356.245 32.9744 355.827 33.6713C355.465 34.2566 352.092 34.8699 349.722 34.7863C347.353 34.6748 347.297 34.6469 346.182 33.5598C345.262 32.6678 345.067 32.2775 345.067 31.4134V30.3541H351.646H358.252L358.113 27.483C357.918 23.0509 356.58 20.5421 353.569 18.9811C352.398 18.3957 351.729 18.2564 349.527 18.1727C347.827 18.117 346.461 18.2285 345.708 18.4794ZM350.447 22.3819C351.646 22.8557 352.343 23.9707 352.398 25.4203L352.454 26.591L348.858 26.6746C346.879 26.7025 345.151 26.6468 345.039 26.5353C344.705 26.1729 345.513 24.2216 346.377 23.3296C347.66 21.9637 348.83 21.685 350.447 22.3819Z" fill="#376B91"/>
<path d="M372.076 18.3406C370.765 18.7588 369.845 19.5671 369.009 20.9888L368.201 22.4104V20.3755V18.3685H365.135H362.068V28.5429V38.7173H365.107H368.173L368.257 32.7799C368.34 27.4279 368.396 26.7589 368.926 25.7554C369.985 23.6926 372.299 22.8285 374.473 23.6648L375.198 23.9435L375.114 21.0724L375.03 18.2291L373.915 18.1734C373.302 18.1455 372.466 18.2291 372.076 18.3406Z" fill="#376B91"/>
<path d="M299.46 18.786C299.348 19.009 299.348 22.3819 299.404 26.2565C299.571 33.8943 299.766 35.0929 301.188 36.9605C302.08 38.1313 303.641 38.8839 305.759 39.1348C307.906 39.3857 310.052 38.5773 311.585 36.9048L312.728 35.6504V37.1835V38.7167H315.794H318.861V28.5423V18.3679H315.962H313.063L312.951 24.9743C312.867 30.6887 312.784 31.7479 312.366 32.5284C310.86 35.3159 306.735 35.0929 305.871 32.166C305.648 31.4413 305.508 28.7653 305.508 24.6955L305.481 18.3679H302.554C300.184 18.3679 299.571 18.4515 299.46 18.786Z" fill="#376B91"/>
<path d="M81.731 38.5777C81.3965 38.8007 79.3616 39.8878 77.2152 40.947C67.2081 45.9924 55.3333 48.2782 43.9046 47.3862C41.6467 47.1911 39.7233 47.1074 39.6676 47.1632C39.3331 47.4977 46.4969 48.0273 51.2636 47.9994C58.7062 47.9716 64.337 47.0796 71.0549 44.8496C75.5706 43.3443 82.9296 39.5254 83.2641 38.494C83.4035 38.0202 82.4558 38.0759 81.731 38.5777Z" fill="#0F4369"/>
</svg>
