<svg width="144" height="48" viewBox="0 0 144 48" fill="none" xmlns="http://www.w3.org/2000/svg">
<path d="M117.227 0.149062C114.843 0.704635 113.947 3.87678 115.614 5.79441C116.887 7.22815 119.772 7.26399 121.098 5.84817C122.371 4.50404 122.317 2.35343 120.991 1.02723C120.059 0.0773746 118.768 -0.209373 117.227 0.149062Z" fill="#2146F0"/>
<path d="M65.0024 0.274359C64.9307 0.328124 64.877 7.99862 64.877 17.3V34.2002H68.3717H71.8664V30.4904V26.7806L72.6191 26.01C73.0313 25.5798 73.4256 25.2393 73.4973 25.2393C73.569 25.2393 74.931 27.2645 76.544 29.7198L79.4473 34.2002H83.5514H87.6555L83.2467 27.6588C80.5047 23.5905 78.8917 21.0277 78.9814 20.8843C79.1247 20.6334 85.7378 13.1601 86.7235 12.1027L87.3508 11.4396H83.1213H78.8917L75.4149 15.705L71.956 19.9703L71.9023 10.0596L71.8664 0.148907H68.4971C66.6333 0.148907 65.0562 0.202672 65.0024 0.274359Z" fill="#111924"/>
<path d="M129.215 7.94492V11.4397H127.423H125.631V13.9487V16.4577H127.405H129.197L129.251 23.1246C129.305 29.5585 129.323 29.8453 129.699 30.6517C130.954 33.3759 133.086 34.3078 137.638 34.1465C139.628 34.0748 140.327 33.9852 141.545 33.5909C142.746 33.1966 143.015 33.0533 142.943 32.8024C142.889 32.6411 142.674 31.6912 142.477 30.7055C141.922 28.0531 142.029 28.2682 141.259 28.5907C140.201 29.0388 138.033 29.0926 137.28 28.6983C136.079 28.071 136.025 27.7843 136.025 21.7805V16.4577H138.893H141.76V13.9487V11.4397H138.893H136.025V7.94492V4.45018H132.62H129.215V7.94492Z" fill="#2146F0"/>
<path d="M11.3982 11.0991C10.2512 11.3679 8.58451 12.264 7.38375 13.2318C6.75649 13.7336 6.21884 14.1279 6.183 14.092C6.14715 14.0562 5.98586 13.4648 5.78872 12.7837L5.46613 11.5292L2.7241 11.4754L0 11.4217V22.8199V34.2002H3.49474H6.98948V26.3326V18.4649L7.72427 17.8018C8.78165 16.852 10.1079 16.2785 11.2548 16.2785C12.4377 16.2785 13.1008 16.619 13.6564 17.4792L14.0686 18.1602L14.1223 26.1713L14.1761 34.2002H17.6529H21.1476V26.2429V18.2857L21.7749 17.7301C22.7606 16.8699 23.8001 16.4218 25.0725 16.3143C26.4525 16.2068 27.2231 16.5473 27.8325 17.5151C28.2267 18.1602 28.2267 18.2499 28.2805 26.1713L28.3343 34.2002H31.8111H35.3058V26.3505C35.3058 22.0493 35.2162 17.9452 35.1266 17.2462C34.7861 14.5759 33.7287 12.8733 31.7752 11.8518C28.5493 10.1492 24.3736 10.7586 21.2373 13.3931C20.3053 14.1816 20.144 14.2533 19.9827 14.0024C19.1583 12.6583 17.6171 11.583 15.9503 11.1887C14.6779 10.884 12.4914 10.8482 11.3982 11.0991Z" fill="#111924"/>
<path d="M47.2598 11.1707C45.0733 11.5829 41.2201 13.0346 41.2201 13.4468C41.2201 13.7694 43.4066 17.8914 43.5679 17.8914C43.6575 17.8914 44.2131 17.6405 44.8045 17.3537C46.2203 16.6368 47.672 16.2784 49.1057 16.2784C50.647 16.2784 51.4355 16.5114 52.0628 17.1745C52.5108 17.6584 52.6004 17.8914 52.6542 18.9487L52.7259 20.1674L49.715 20.275C46.4174 20.3825 45.3242 20.5975 43.3708 21.5116C41.9908 22.1747 40.575 23.5367 39.9656 24.7912C39.5713 25.5798 39.5176 25.9203 39.5176 27.6587C39.5176 29.5046 39.5534 29.7018 40.0911 30.8309C41.3635 33.5191 43.5679 34.7378 47.1881 34.7378C49.6971 34.7378 51.4176 34.1105 53.0843 32.623C53.4428 32.3004 53.7654 32.1033 53.8191 32.175C53.855 32.2467 53.9983 32.7485 54.1417 33.2503L54.3747 34.2001H57.0271H59.6795V26.0458C59.6795 17.3179 59.6258 16.7085 58.7834 15.0239C57.9232 13.3392 56.4536 12.1564 54.303 11.4395C52.7797 10.9198 49.2849 10.7944 47.2598 11.1707ZM52.6901 26.1533V27.9813L51.9194 28.734C50.7007 29.9706 48.9265 30.2036 47.5286 29.3613C46.8655 28.9491 46.5967 28.3935 46.5967 27.372C46.5967 25.5798 47.7795 24.7733 50.8083 24.5224C51.7044 24.4507 52.475 24.379 52.5646 24.379C52.6363 24.3611 52.6901 25.1676 52.6901 26.1533Z" fill="#111924"/>
<path d="M97.1353 11.189C94.465 11.7624 91.6692 13.7697 90.2713 16.1174C89.1422 18.0351 88.6763 19.7735 88.5687 22.4796C88.515 24.2897 88.5508 25.15 88.7838 26.1715C89.6978 30.2756 92.5474 33.1431 96.8665 34.308C98.6587 34.7919 104.179 34.7919 106.007 34.308C107.584 33.8958 108.964 33.3223 108.964 33.0714C108.964 32.9101 107.87 28.6089 107.799 28.5193C107.799 28.5013 107.189 28.6806 106.455 28.9315C104.591 29.5946 102.171 29.8455 100.415 29.5766C98.9454 29.3437 97.3146 28.6985 96.6156 28.0533C96.0421 27.5156 95.5224 26.3687 95.5224 25.5443V24.8812H102.781H110.039V22.2287C110.039 17.9634 109.268 15.7052 107.1 13.6263C105.146 11.7445 102.852 10.9022 99.8236 10.9201C98.9813 10.9201 97.7805 11.0456 97.1353 11.189ZM101.06 16.1891C102.082 16.7088 102.673 17.7125 102.942 19.3433L103.05 19.9885L101.042 20.0961C99.9311 20.1677 98.2644 20.2215 97.3325 20.2215H95.6478L95.7554 19.4867C95.9167 18.286 96.5977 17.1569 97.5655 16.4938C98.3002 16.0099 98.587 15.9203 99.501 15.9203C100.075 15.9203 100.791 16.0457 101.06 16.1891Z" fill="#111924"/>
<path d="M114.879 22.8199V34.2002H118.374H121.868V22.8199V11.4396H118.374H114.879V22.8199Z" fill="#2146F0"/>
<path d="M0.359375 44.4874V47.8208H1.79311C4.23047 47.8208 5.30577 46.9247 5.50291 44.792C5.59252 43.9318 5.52083 43.5734 5.21616 42.9102C4.62475 41.7095 3.87203 41.3152 1.93649 41.2256L0.359375 41.1539V44.4874ZM3.54944 42.1575C4.30216 42.5697 4.66059 43.3404 4.66059 44.5053C4.66059 46.3512 3.72866 47.2831 1.88272 47.2831H1.07624V44.5949V41.9066H2.1157C2.67128 41.9246 3.31646 42.0142 3.54944 42.1575Z" fill="#111924"/>
<path d="M10.0371 44.5053C10.0371 47.6953 10.055 47.8208 10.3955 47.8208C10.7361 47.8208 10.754 47.6953 10.754 44.5053C10.754 41.3152 10.7361 41.1898 10.3955 41.1898C10.055 41.1898 10.0371 41.3152 10.0371 44.5053Z" fill="#111924"/>
<path d="M17.1507 41.4406C15.8245 41.9245 15.1973 42.9281 15.1973 44.5948C15.1973 46.62 16.4518 47.8745 18.459 47.8745C20.2333 47.8745 20.2512 47.8566 20.2512 46.0107V44.4156H19.2655C18.5128 44.4156 18.2798 44.4694 18.2798 44.6844C18.2798 44.8816 18.4769 44.9533 18.9071 44.9533H19.5522L19.4985 46.0644L19.4447 47.1935L18.5486 47.2473C17.9034 47.2831 17.4912 47.1935 17.0611 46.9247C15.6274 46.0465 15.5736 43.3762 16.9536 42.2829C17.4196 41.9066 17.6167 41.8707 18.7816 41.9424C19.8928 42.0141 20.072 41.9962 20.0361 41.7453C19.9286 41.2076 18.2977 41.0463 17.1507 41.4406Z" fill="#111924"/>
<path d="M24.9121 44.5053C24.9121 47.6953 24.93 47.8208 25.2705 47.8208C25.6111 47.8208 25.629 47.6953 25.629 44.5053C25.629 41.3152 25.6111 41.1898 25.2705 41.1898C24.93 41.1898 24.9121 41.3152 24.9121 44.5053Z" fill="#111924"/>
<path d="M29.75 41.5482C29.75 41.8708 29.8755 41.9066 30.8253 41.9066H31.9006V44.8637C31.9006 47.6953 31.9185 47.8208 32.259 47.8208C32.5996 47.8208 32.6175 47.6953 32.6175 44.8637V41.9066H33.6928C34.6426 41.9066 34.7681 41.8708 34.7681 41.5482C34.7681 41.2077 34.6426 41.1898 32.259 41.1898C29.8755 41.1898 29.75 41.2077 29.75 41.5482Z" fill="#111924"/>
<path d="M39.6251 41.584C39.5355 41.817 38.9799 43.2687 38.3706 44.8279C37.7792 46.3871 37.2773 47.6953 37.2773 47.7491C37.2773 47.8029 37.4566 47.8208 37.6537 47.785C37.9225 47.7491 38.1197 47.4803 38.3347 46.9247L38.6394 46.1182L40.0911 46.0645L41.5427 46.0107L41.8653 46.9247C42.1162 47.6237 42.2775 47.8208 42.5822 47.8208C42.9585 47.8208 42.9227 47.6774 41.7399 44.577C41.0588 42.8027 40.5033 41.2973 40.5033 41.2614C40.5033 41.2256 40.342 41.1898 40.1448 41.1898C39.9298 41.1898 39.7147 41.3511 39.6251 41.584ZM40.7362 43.878C41.0051 44.6128 41.2201 45.2759 41.2201 45.3476C41.2201 45.4372 40.6825 45.491 40.0373 45.491C39.1591 45.491 38.8724 45.4372 38.9441 45.258C38.9799 45.1505 39.2487 44.4157 39.5355 43.663C39.8222 42.8923 40.0911 42.3368 40.1627 42.4084C40.2165 42.4801 40.4853 43.1432 40.7362 43.878Z" fill="#111924"/>
<path d="M47.1348 44.5053V47.8208H48.9269C50.3965 47.8208 50.7191 47.767 50.7191 47.552C50.7191 47.3369 50.4324 47.2831 49.2854 47.2831H47.8516V44.2365C47.8516 41.3152 47.8337 41.1898 47.4932 41.1898C47.1527 41.1898 47.1348 41.3152 47.1348 44.5053Z" fill="#111924"/>
<path d="M62.0274 41.584C61.9378 41.817 61.3823 43.2508 60.7729 44.7741C60.1815 46.2975 59.6797 47.6057 59.6797 47.6774C59.6797 47.767 59.841 47.8208 60.0381 47.8208C60.289 47.8208 60.4682 47.5878 60.7012 46.9247L61.0238 46.0286H62.4934H63.9451L64.2497 46.9247C64.4827 47.6595 64.6261 47.8208 64.9487 47.8208C65.3609 47.8208 65.325 47.7133 64.1064 44.5053C63.1027 41.8529 62.7801 41.1898 62.5113 41.1898C62.3321 41.1898 62.117 41.369 62.0274 41.584ZM63.0848 43.7346C63.3716 44.5949 63.6225 45.3297 63.6225 45.3834C63.6225 45.4372 63.0848 45.491 62.4396 45.491C61.3823 45.491 61.2747 45.4551 61.3823 45.1684C61.436 45.0071 61.7048 44.2365 61.9737 43.4837C62.2425 42.731 62.4755 42.1217 62.4934 42.1396C62.5113 42.1755 62.7801 42.8923 63.0848 43.7346Z" fill="#111924"/>
<path d="M71.1327 41.369C69.7886 41.7633 69 42.964 69 44.6128C69.0179 46.9427 70.8639 48.3226 73.2833 47.8029L74.1973 47.6058V46.0107V44.4157H73.122C72.2797 44.4157 72.0467 44.4695 72.0467 44.6845C72.0467 44.8817 72.2438 44.9533 72.7636 44.9533H73.4984L73.4446 46.0645L73.3908 47.1936L72.5485 47.2473C70.8997 47.3549 70.0036 46.6021 69.7886 44.9175C69.6452 43.8422 70.0574 42.8027 70.8101 42.3009C71.3298 41.9425 71.5987 41.8887 72.656 41.9425C74.0718 41.9963 74.4661 41.6916 73.355 41.3869C72.5843 41.1719 71.8137 41.1539 71.1327 41.369Z" fill="#111924"/>
<path d="M78.6777 44.5053V47.8208H80.6491C82.28 47.8208 82.6205 47.767 82.6205 47.552C82.6205 47.3369 82.3158 47.2831 81.0076 47.2831H79.3946V46.0286V44.7741H80.8283C81.9574 44.7741 82.2621 44.7203 82.2621 44.5053C82.2621 44.3081 81.9395 44.2365 80.8821 44.2006L79.4842 44.1468L79.4304 43.0178L79.3767 41.9066H81.0076C82.4951 41.9066 82.6205 41.8887 82.6205 41.5482C82.6205 41.2077 82.4951 41.1898 80.6491 41.1898H78.6777V44.5053Z" fill="#111924"/>
<path d="M87.0996 44.4875C87.0996 47.7672 87.0996 47.8209 87.476 47.8209C87.8523 47.8209 87.8702 47.7851 87.7806 45.0968C87.7089 43.0538 87.7448 42.4444 87.8882 42.6774C87.9957 42.8745 88.8201 44.0753 89.6983 45.3657C90.8453 47.0503 91.4367 47.7493 91.7234 47.7851L92.1177 47.8389V44.5233C92.1177 41.3154 92.0998 41.1899 91.7593 41.1899C91.4367 41.1899 91.4008 41.3333 91.365 43.8961L91.3112 46.6023L89.519 43.9499C88.5333 42.4803 87.5835 41.2616 87.4222 41.2257C87.1175 41.172 87.0996 41.4229 87.0996 44.4875Z" fill="#111924"/>
<path d="M98.2115 41.584C96.8136 42.3009 96.1684 43.878 96.5985 45.5088C97.0287 47.1218 98.0144 47.8745 99.6273 47.8745C100.864 47.8745 101.455 47.7132 101.33 47.3906C101.258 47.2114 100.936 47.1756 100.129 47.2293C98.3907 47.3369 97.5125 46.6379 97.3513 44.9891C97.2437 43.8421 97.5484 42.9281 98.2653 42.3367C98.7671 41.9245 98.9284 41.8707 100.057 41.9424C101.491 41.9962 101.903 41.6915 100.774 41.3868C99.7348 41.1001 99.0897 41.1539 98.2115 41.584Z" fill="#111924"/>
<path d="M105.614 42.3009C105.972 42.9282 106.456 43.7884 106.707 44.2365C107.101 44.9175 107.173 45.2759 107.173 46.4229C107.173 47.6953 107.209 47.8208 107.531 47.8208C107.854 47.8208 107.89 47.6953 107.89 46.5125C107.89 45.1863 108.123 44.6307 109.897 41.7633L110.256 41.1898H109.825C109.467 41.1898 109.234 41.4765 108.481 42.8206L107.585 44.4515L106.707 42.8206C105.99 41.4944 105.757 41.1898 105.417 41.1898C104.987 41.1898 104.987 41.1898 105.614 42.3009Z" fill="#111924"/>
<path d="M114.699 44.6845V48H128.857H143.016V44.6845V41.369H128.857H114.699V44.6845Z" fill="#2146F0"/>
</svg>
