<svg width="470" height="94" viewBox="0 0 470 94" fill="none" xmlns="http://www.w3.org/2000/svg">
<path d="M171.242 58.2773C173.973 58.2773 176.405 58.832 178.538 59.9413C180.714 61.008 182.421 62.672 183.658 64.9333C184.896 67.152 185.514 70.0107 185.514 73.5093V93.2213H175.53V75.0453C175.53 72.272 174.912 70.224 173.674 68.9013C172.48 67.5787 170.773 66.9173 168.554 66.9173C166.976 66.9173 165.546 67.2587 164.266 67.9413C163.029 68.5813 162.048 69.584 161.322 70.9493C160.64 72.3147 160.298 74.064 160.298 76.1973V93.2213H150.314V58.7893H159.85V68.3253L158.058 65.4453C159.296 63.1413 161.066 61.3707 163.37 60.1333C165.674 58.896 168.298 58.2773 171.242 58.2773Z" fill="#0A0A0A"/>
<path d="M127.44 93.2216C123.771 93.2216 120.507 92.4536 117.648 90.9176C114.832 89.3816 112.592 87.291 110.928 84.6456C109.307 81.9576 108.496 78.907 108.496 75.4936C108.496 72.0376 109.307 68.987 110.928 66.3416C112.592 63.6536 114.832 61.563 117.648 60.0696C120.507 58.5336 123.771 57.7656 127.44 57.7656C131.067 57.7656 134.309 58.5336 137.168 60.0696C140.027 61.563 142.267 63.6323 143.888 66.2776C145.509 68.923 146.32 71.995 146.32 75.4936C146.32 78.907 145.509 81.9576 143.888 84.6456C142.267 87.291 140.027 89.3816 137.168 90.9176C134.309 92.4536 131.067 93.2216 127.44 93.2216ZM127.44 85.0296C129.104 85.0296 130.597 84.6456 131.92 83.8776C133.243 83.1096 134.288 82.0216 135.056 80.6136C135.824 79.163 136.208 77.4563 136.208 75.4936C136.208 73.4883 135.824 71.7816 135.056 70.3736C134.288 68.9656 133.243 67.8776 131.92 67.1096C130.597 66.3416 129.104 65.9576 127.44 65.9576C125.776 65.9576 124.283 66.3416 122.96 67.1096C121.637 67.8776 120.571 68.9656 119.76 70.3736C118.992 71.7816 118.608 73.4883 118.608 75.4936C118.608 77.4563 118.992 79.163 119.76 80.6136C120.571 82.0216 121.637 83.1096 122.96 83.8776C124.283 84.6456 125.776 85.0296 127.44 85.0296Z" fill="#0A0A0A"/>
<path d="M87.8609 93.2216C83.9356 93.2216 80.4796 92.4536 77.4929 90.9176C74.5489 89.3816 72.2662 87.291 70.6449 84.6456C69.0236 81.9576 68.2129 78.907 68.2129 75.4936C68.2129 72.0376 69.0022 68.987 70.5809 66.3416C72.2022 63.6536 74.3996 61.563 77.1729 60.0696C79.9462 58.5336 83.0822 57.7656 86.5809 57.7656C89.9516 57.7656 92.9809 58.491 95.6689 59.9416C98.3996 61.3496 100.554 63.3976 102.133 66.0856C103.712 68.731 104.501 71.9096 104.501 75.6216C104.501 76.0056 104.48 76.4536 104.437 76.9656C104.394 77.435 104.352 77.883 104.309 78.3096H76.3409V72.4856H99.0609L95.2209 74.2136C95.2209 72.4216 94.8582 70.8643 94.1329 69.5416C93.4076 68.219 92.4049 67.195 91.1249 66.4696C89.8449 65.7016 88.3516 65.3176 86.6449 65.3176C84.9382 65.3176 83.4236 65.7016 82.1009 66.4696C80.8209 67.195 79.8182 68.2403 79.0929 69.6056C78.3676 70.9283 78.0049 72.507 78.0049 74.3416V75.8776C78.0049 77.755 78.4102 79.419 79.2209 80.8696C80.0742 82.2776 81.2476 83.3656 82.7409 84.1336C84.2769 84.859 86.0689 85.2216 88.1169 85.2216C89.9516 85.2216 91.5516 84.9443 92.9169 84.3896C94.3249 83.835 95.6049 83.003 96.7569 81.8936L102.069 87.6536C100.49 89.4456 98.5062 90.8323 96.1169 91.8136C93.7276 92.7523 90.9756 93.2216 87.8609 93.2216Z" fill="#0A0A0A"/>
<path d="M42.8438 93.2213V58.7893H52.3798V68.5173L51.0358 65.7013C52.0598 63.2693 53.7024 61.4347 55.9638 60.1973C58.2251 58.9173 60.9771 58.2773 64.2197 58.2773V67.4933C63.7931 67.4507 63.4091 67.4293 63.0678 67.4293C62.7264 67.3867 62.3638 67.3653 61.9797 67.3653C59.2491 67.3653 57.0304 68.1547 55.3237 69.7333C53.6597 71.2693 52.8278 73.68 52.8278 76.9653V93.2213H42.8438Z" fill="#0A0A0A"/>
<path d="M0 93.2214V48.4214H19.392C23.4027 48.4214 26.8587 49.0827 29.76 50.4054C32.6613 51.6854 34.9013 53.5414 36.48 55.9734C38.0587 58.4054 38.848 61.3067 38.848 64.6774C38.848 68.0054 38.0587 70.8854 36.48 73.3174C34.9013 75.7494 32.6613 77.6267 29.76 78.9494C26.8587 80.2294 23.4027 80.8694 19.392 80.8694H5.76L10.368 76.1974V93.2214H0ZM10.368 77.3494L5.76 72.4214H18.816C22.016 72.4214 24.4053 71.7387 25.984 70.3734C27.5627 69.008 28.352 67.1094 28.352 64.6774C28.352 62.2027 27.5627 60.2827 25.984 58.9174C24.4053 57.5521 22.016 56.8694 18.816 56.8694H5.76L10.368 51.9414V77.3494Z" fill="#0A0A0A"/>
<path d="M215.477 93.2219V48.4219H224.053L243.125 80.0379H238.581L257.333 48.4219H265.845L265.973 93.2219H256.245L256.181 63.3339H257.973L242.997 88.4859H238.325L223.029 63.3339H225.205V93.2219H215.477Z" fill="#0A0A0A"/>
<path d="M288.911 93.2216C285.241 93.2216 281.977 92.4536 279.119 90.9176C276.303 89.3816 274.063 87.291 272.399 84.6456C270.777 81.9576 269.967 78.907 269.967 75.4936C269.967 72.0376 270.777 68.987 272.399 66.3416C274.063 63.6536 276.303 61.563 279.119 60.0696C281.977 58.5336 285.241 57.7656 288.911 57.7656C292.537 57.7656 295.78 58.5336 298.639 60.0696C301.497 61.563 303.737 63.6323 305.359 66.2776C306.98 68.923 307.791 71.995 307.791 75.4936C307.791 78.907 306.98 81.9576 305.359 84.6456C303.737 87.291 301.497 89.3816 298.639 90.9176C295.78 92.4536 292.537 93.2216 288.911 93.2216ZM288.911 85.0296C290.575 85.0296 292.068 84.6456 293.391 83.8776C294.713 83.1096 295.759 82.0216 296.527 80.6136C297.295 79.163 297.679 77.4563 297.679 75.4936C297.679 73.4883 297.295 71.7816 296.527 70.3736C295.759 68.9656 294.713 67.8776 293.391 67.1096C292.068 66.3416 290.575 65.9576 288.911 65.9576C287.247 65.9576 285.753 66.3416 284.431 67.1096C283.108 67.8776 282.041 68.9656 281.231 70.3736C280.463 71.7816 280.079 73.4883 280.079 75.4936C280.079 77.4563 280.463 79.163 281.231 80.6136C282.041 82.0216 283.108 83.1096 284.431 83.8776C285.753 84.6456 287.247 85.0296 288.911 85.0296Z" fill="#0A0A0A"/>
<path d="M329.001 93.2217C325.759 93.2217 322.836 92.4963 320.233 91.0457C317.631 89.5523 315.561 87.483 314.025 84.8377C312.532 82.1923 311.785 79.0777 311.785 75.4937C311.785 71.867 312.532 68.731 314.025 66.0857C315.561 63.4403 317.631 61.3923 320.233 59.9417C322.836 58.491 325.759 57.7657 329.001 57.7657C331.903 57.7657 334.441 58.4057 336.617 59.6857C338.793 60.9657 340.478 62.907 341.673 65.5097C342.868 68.1123 343.465 71.4403 343.465 75.4937C343.465 79.5043 342.889 82.8323 341.737 85.4777C340.585 88.0803 338.921 90.0217 336.745 91.3017C334.612 92.5817 332.031 93.2217 329.001 93.2217ZM330.729 85.0297C332.35 85.0297 333.822 84.6457 335.145 83.8777C336.468 83.1097 337.513 82.0217 338.281 80.6137C339.092 79.163 339.497 77.4563 339.497 75.4937C339.497 73.4883 339.092 71.7817 338.281 70.3737C337.513 68.9657 336.468 67.8777 335.145 67.1097C333.822 66.3417 332.35 65.9577 330.729 65.9577C329.065 65.9577 327.572 66.3417 326.249 67.1097C324.926 67.8777 323.86 68.9657 323.049 70.3737C322.281 71.7817 321.897 73.4883 321.897 75.4937C321.897 77.4563 322.281 79.163 323.049 80.6137C323.86 82.0217 324.926 83.1097 326.249 83.8777C327.572 84.6457 329.065 85.0297 330.729 85.0297ZM339.753 92.7097V85.6697L339.945 75.4297L339.305 65.2537V45.2217H349.289V92.7097H339.753Z" fill="#0A0A0A"/>
<path d="M372.933 93.2216C369.008 93.2216 365.552 92.4536 362.565 90.9176C359.621 89.3816 357.338 87.291 355.717 84.6456C354.096 81.9576 353.285 78.907 353.285 75.4936C353.285 72.0376 354.074 68.987 355.653 66.3416C357.274 63.6536 359.472 61.563 362.245 60.0696C365.018 58.5336 368.154 57.7656 371.653 57.7656C375.024 57.7656 378.053 58.491 380.741 59.9416C383.472 61.3496 385.626 63.3976 387.205 66.0856C388.784 68.731 389.573 71.9096 389.573 75.6216C389.573 76.0056 389.552 76.4536 389.509 76.9656C389.466 77.435 389.424 77.883 389.381 78.3096H361.413V72.4856H384.133L380.293 74.2136C380.293 72.4216 379.93 70.8643 379.205 69.5416C378.48 68.219 377.477 67.195 376.197 66.4696C374.917 65.7016 373.424 65.3176 371.717 65.3176C370.01 65.3176 368.496 65.7016 367.173 66.4696C365.893 67.195 364.89 68.2403 364.165 69.6056C363.44 70.9283 363.077 72.507 363.077 74.3416V75.8776C363.077 77.755 363.482 79.419 364.293 80.8696C365.146 82.2776 366.32 83.3656 367.813 84.1336C369.349 84.859 371.141 85.2216 373.189 85.2216C375.024 85.2216 376.624 84.9443 377.989 84.3896C379.397 83.835 380.677 83.003 381.829 81.8936L387.141 87.6536C385.562 89.4456 383.578 90.8323 381.189 91.8136C378.8 92.7523 376.048 93.2216 372.933 93.2216Z" fill="#0A0A0A"/>
<path d="M385.163 33.2369C382.044 33.1868 381.898 36.5872 382.754 38.8456C385.618 47.6934 399.857 57.0656 408.507 59.2292C408.428 58.7753 408.466 58.251 408.248 57.8798C405.457 53.1897 401.641 49.2189 398.319 44.9094C395.126 41.5022 389.871 33.4916 385.163 33.2369Z" fill="#ADA4E5"/>
<ellipse opacity="0.75" cx="412.016" cy="22.3535" rx="12.5704" ry="24.7036" transform="rotate(29.6753 412.016 22.3535)" fill="#4797FF"/>
<path opacity="0.75" d="M410.48 21.3639C419.852 11.4491 431.54 7.27764 436.585 12.0466C441.558 16.7479 438.22 28.3817 429.145 38.2096C432.291 38.8988 435.564 39.788 438.894 40.8796C457.824 47.0843 471.416 57.4631 469.254 64.0602C467.091 70.6571 449.992 70.9749 431.063 64.7702C416.571 60.0197 405.207 52.8229 401.646 46.7497C398.166 41.3917 401.818 30.5285 410.48 21.3639Z" fill="#ADA4E5"/>
</svg>
