<svg width="158" height="48" viewBox="0 0 158 48" fill="none" xmlns="http://www.w3.org/2000/svg">
<path d="M56.2642 31V16.4545H66.0653V18.9901H59.3395V22.456H65.5611V24.9915H59.3395V28.4645H66.0938V31H56.2642ZM70.879 24.6932V31H67.8535V20.0909H70.737V22.0156H70.8648C71.1063 21.3812 71.5112 20.8793 72.0793 20.5099C72.6475 20.1359 73.3364 19.9489 74.1461 19.9489C74.9037 19.9489 75.5642 20.1146 76.1276 20.446C76.6911 20.7775 77.129 21.2509 77.4415 21.8665C77.754 22.4773 77.9103 23.2064 77.9103 24.054V31H74.8847V24.5938C74.8895 23.9261 74.719 23.4053 74.3734 23.0312C74.0277 22.6525 73.5519 22.4631 72.9458 22.4631C72.5386 22.4631 72.1788 22.5507 71.8663 22.7259C71.5585 22.901 71.317 23.1567 71.1418 23.4929C70.9714 23.8243 70.8838 24.2244 70.879 24.6932ZM84.6665 31.2131C83.5443 31.2131 82.5784 30.9858 81.7687 30.5312C80.9638 30.072 80.3436 29.4233 79.908 28.5852C79.4723 27.7424 79.2545 26.7457 79.2545 25.5952C79.2545 24.473 79.4723 23.4882 79.908 22.6406C80.3436 21.7931 80.9567 21.1326 81.7474 20.6591C82.5429 20.1856 83.4757 19.9489 84.5457 19.9489C85.2654 19.9489 85.9354 20.0649 86.5557 20.2969C87.1807 20.5241 87.7252 20.8674 88.1892 21.3267C88.658 21.786 89.0225 22.3636 89.283 23.0597C89.5434 23.7509 89.6736 24.5606 89.6736 25.4886V26.3196H80.4619V24.4446H86.8256C86.8256 24.009 86.7309 23.6231 86.5415 23.2869C86.3521 22.9508 86.0893 22.688 85.7531 22.4986C85.4217 22.3045 85.0358 22.2074 84.5955 22.2074C84.1362 22.2074 83.729 22.3139 83.3739 22.527C83.0235 22.7353 82.7489 23.017 82.55 23.3722C82.3511 23.7225 82.2493 24.1132 82.2446 24.544V26.3267C82.2446 26.8665 82.344 27.3329 82.5429 27.7259C82.7465 28.1188 83.033 28.4219 83.4023 28.6349C83.7716 28.848 84.2096 28.9545 84.7162 28.9545C85.0524 28.9545 85.3601 28.9072 85.6395 28.8125C85.9188 28.7178 86.158 28.5758 86.3568 28.3864C86.5557 28.197 86.7072 27.965 86.8114 27.6903L89.6097 27.875C89.4676 28.5473 89.1764 29.1345 88.7361 29.6364C88.3005 30.1335 87.737 30.5218 87.0457 30.8011C86.3592 31.0758 85.5661 31.2131 84.6665 31.2131ZM91.048 31V20.0909H93.9813V21.9943H94.0949C94.2938 21.3172 94.6276 20.8059 95.0963 20.4602C95.5651 20.1098 96.1048 19.9347 96.7156 19.9347C96.8671 19.9347 97.0305 19.9441 97.2057 19.9631C97.3809 19.982 97.5348 20.008 97.6673 20.0412V22.7259C97.5253 22.6832 97.3288 22.6454 97.0778 22.6122C96.8269 22.5791 96.5973 22.5625 96.3889 22.5625C95.9438 22.5625 95.5461 22.6596 95.1957 22.8537C94.8501 23.0431 94.5755 23.3082 94.3719 23.6491C94.173 23.9901 94.0736 24.383 94.0736 24.8281V31H91.048ZM103.039 35.3182C102.058 35.3182 101.218 35.1832 100.517 34.9134C99.8212 34.6482 99.2673 34.286 98.8553 33.8267C98.4434 33.3674 98.1759 32.8513 98.0528 32.2784L100.851 31.902C100.936 32.1198 101.071 32.3234 101.256 32.5128C101.441 32.7022 101.684 32.8537 101.987 32.9673C102.295 33.0857 102.669 33.1449 103.11 33.1449C103.768 33.1449 104.31 32.9839 104.736 32.6619C105.167 32.3447 105.382 31.812 105.382 31.0639V29.0682H105.254C105.122 29.3712 104.923 29.6577 104.658 29.9276C104.393 30.1974 104.052 30.4176 103.635 30.5881C103.218 30.7585 102.721 30.8438 102.144 30.8438C101.325 30.8438 100.579 30.6544 99.9065 30.2756C99.2388 29.892 98.7062 29.3073 98.3085 28.5213C97.9155 27.7306 97.719 26.7315 97.719 25.5241C97.719 24.2884 97.9202 23.2562 98.3227 22.4276C98.7251 21.599 99.2602 20.9787 99.9278 20.5668C100.6 20.1548 101.336 19.9489 102.137 19.9489C102.747 19.9489 103.259 20.053 103.671 20.2614C104.083 20.465 104.414 20.7206 104.665 21.0284C104.921 21.3314 105.117 21.6297 105.254 21.9233H105.368V20.0909H108.372V31.1065C108.372 32.0346 108.145 32.8111 107.691 33.4361C107.236 34.0611 106.606 34.5298 105.801 34.8423C105.001 35.1596 104.08 35.3182 103.039 35.3182ZM103.102 28.571C103.59 28.571 104.002 28.4503 104.338 28.2088C104.679 27.9626 104.94 27.6122 105.12 27.1577C105.304 26.6984 105.397 26.1491 105.397 25.5099C105.397 24.8707 105.307 24.3168 105.127 23.848C104.947 23.3745 104.686 23.0076 104.345 22.7472C104.004 22.4867 103.59 22.3565 103.102 22.3565C102.605 22.3565 102.186 22.4915 101.845 22.7614C101.504 23.0265 101.246 23.3958 101.071 23.8693C100.896 24.3428 100.808 24.8897 100.808 25.5099C100.808 26.1397 100.896 26.6842 101.071 27.1435C101.251 27.598 101.509 27.9508 101.845 28.2017C102.186 28.4479 102.605 28.571 103.102 28.571ZM115.152 31.2131C114.029 31.2131 113.064 30.9858 112.254 30.5312C111.449 30.072 110.829 29.4233 110.393 28.5852C109.958 27.7424 109.74 26.7457 109.74 25.5952C109.74 24.473 109.958 23.4882 110.393 22.6406C110.829 21.7931 111.442 21.1326 112.233 20.6591C113.028 20.1856 113.961 19.9489 115.031 19.9489C115.751 19.9489 116.421 20.0649 117.041 20.2969C117.666 20.5241 118.21 20.8674 118.674 21.3267C119.143 21.786 119.508 22.3636 119.768 23.0597C120.029 23.7509 120.159 24.5606 120.159 25.4886V26.3196H110.947V24.4446H117.311C117.311 24.009 117.216 23.6231 117.027 23.2869C116.837 22.9508 116.574 22.688 116.238 22.4986C115.907 22.3045 115.521 22.2074 115.081 22.2074C114.621 22.2074 114.214 22.3139 113.859 22.527C113.509 22.7353 113.234 23.017 113.035 23.3722C112.836 23.7225 112.734 24.1132 112.73 24.544V26.3267C112.73 26.8665 112.829 27.3329 113.028 27.7259C113.232 28.1188 113.518 28.4219 113.887 28.6349C114.257 28.848 114.695 28.9545 115.201 28.9545C115.538 28.9545 115.845 28.9072 116.125 28.8125C116.404 28.7178 116.643 28.5758 116.842 28.3864C117.041 28.197 117.192 27.965 117.297 27.6903L120.095 27.875C119.953 28.5473 119.662 29.1345 119.221 29.6364C118.786 30.1335 118.222 30.5218 117.531 30.8011C116.844 31.0758 116.051 31.2131 115.152 31.2131ZM127.336 20.0909V22.3636H120.766V20.0909H127.336ZM122.258 17.4773H125.283V27.6477C125.283 27.9271 125.326 28.1449 125.411 28.3011C125.496 28.4527 125.615 28.5592 125.766 28.6207C125.922 28.6823 126.102 28.7131 126.306 28.7131C126.448 28.7131 126.59 28.7012 126.732 28.6776C126.874 28.6491 126.983 28.6278 127.059 28.6136L127.535 30.8651C127.383 30.9124 127.17 30.9669 126.895 31.0284C126.621 31.0947 126.287 31.1349 125.894 31.1491C125.165 31.1776 124.526 31.0805 123.976 30.858C123.432 30.6354 123.008 30.2898 122.705 29.821C122.402 29.3523 122.253 28.7604 122.258 28.0455V17.4773ZM128.707 31V20.0909H131.732V31H128.707ZM130.226 18.6847C129.777 18.6847 129.391 18.5355 129.069 18.2372C128.752 17.9342 128.593 17.572 128.593 17.1506C128.593 16.7339 128.752 16.3764 129.069 16.0781C129.391 15.7751 129.777 15.6236 130.226 15.6236C130.676 15.6236 131.06 15.7751 131.377 16.0781C131.699 16.3764 131.86 16.7339 131.86 17.1506C131.86 17.572 131.699 17.9342 131.377 18.2372C131.06 18.5355 130.676 18.6847 130.226 18.6847ZM136.084 20.0909L138.087 23.9048L140.14 20.0909H143.243L140.083 25.5455L143.329 31H140.239L138.087 27.2287L135.971 31H132.846L136.084 25.5455L132.959 20.0909H136.084Z" fill="#919191"/>
<path d="M27.2393 20.2692C29.6635 14.4908 37.9936 12.9633 42.3138 17.5499C46.6748 21.6078 45.5397 29.5768 40.2558 32.2635C40.7526 29.0128 39.6555 25.6548 37.4573 23.3595C34.9406 20.6225 30.8667 19.394 27.2393 20.2678V20.2692ZM38.979 30.6925C38.9818 27.1306 36.9591 23.9452 33.8421 22.3742C35.2142 29.4858 28.3418 36.2073 21.2082 34.6295C22.7177 37.8299 25.8891 39.954 29.5587 39.9974C34.6806 40.1211 39.0485 35.7425 38.9777 30.6925H38.979ZM27.6408 28.7723C21.7717 27.7571 17.7278 21.5398 19.2454 15.7343C13.5641 18.1967 12.173 26.5436 16.6824 30.7115C20.7427 35.0127 28.5038 33.9881 31.32 28.8321C30.1249 29.0237 28.8237 28.9992 27.6422 28.7723H27.6408ZM20.3357 18.2647C20.3357 21.7464 22.2617 24.8666 25.2671 26.477C23.435 19.2391 30.3808 12.0215 37.7377 13.6238C33.0391 5.43592 20.3153 8.82931 20.3357 18.266V18.2647Z" fill="#919191"/>
</svg>
